<svg viewBox="0 0 1024 1024" xmlns="http://www.w3.org/2000/svg"><path d="M182.5 366.1c-38.5 5.3-72.3 25.9-93.5 57-9.4 13.7-17.5 33.8-20.7 51.3-2.6 13.9-2.3 39.2.5 52.3 4.3 19.7 12.8 39.4 23.4 53.8 7.5 10.2 23.1 25.3 32.8 31.7 23.5 15.5 47.4 22.8 75 22.8 33.2 0 62.4-11.1 88.6-33.7 17.4-15 33.1-40 39.5-62.8 4.9-17.3 6.3-41.9 3.4-60.5-8.4-55.8-49.6-98.6-106-110.5-9.5-2-33.2-2.8-43-1.4zm31 21c23.3 2.9 45.4 13.2 63.7 29.9 6.1 5.6 18.8 21 18.8 22.9 0 .5-4.6 1-10.3 1.3-16.4.7-18.3 1.9-41.7 25.8-19.3 19.7-19.5 19.9-24.5 20.5-14.4 1.8-22.6 6.9-27.7 17.2-3.2 6.7-3.3 7-3.7 22.4l-.3 15.7-4.3 2.8c-13.8 8.7-15.4 27.5-3.4 39.6 13.5 13.4 34.3 8.8 42.3-9.5 2.2-4.9 2.9-5.7 5.3-5.7 1.6 0 5.2-1.1 8.2-2.5 4.3-2 9.2-6.5 24-21.8 10.3-10.5 20.9-21.6 23.7-24.6 6.2-6.8 9.3-8.1 19.4-8.1h8v3.4c0 5.7-4.7 22.1-8.8 31-11.3 24.1-30.9 44.2-53.6 55.1-15.4 7.3-32.9 11.5-48.1 11.5-15.4 0-36.4-4.9-49.7-11.6-15.5-7.8-32.2-22-42-35.9C104.2 560 97 547 97 545.3c0-.5 2.1-1.7 4.7-2.7 2.9-1.2 7.9-5 12.8-9.7l8-7.6 6.2 1c16.6 2.8 29.6-9 29.4-26.9l-.1-7.2 15.8-16.4 15.7-16.4 7.6.4c8.6.5 12.9-.6 18.8-4.8 8.7-6.3 12-20.5 7.1-30.5-6.2-12.7-21.4-18.1-33.8-11.9-9.8 4.9-15.1 15-13.7 26l.7 5.5-15.9 16.7c-11.6 12.3-16.3 16.6-17.8 16.4-8.8-1.3-16.4-1.3-19.8.1-5.9 2.5-10.2 6.3-13.3 11.9-2.6 4.8-2.9 6.2-2.7 13.9l.1 8.6-6.2 6.6c-11 11.9-12.1 9.9-12-19.8 0-20.7.8-25.3 7.3-42.1 10.6-27.4 33.7-50.6 61.4-61.8 18.6-7.5 36.7-9.9 56.2-7.5zM205 430c2.4 2.4 2.6 7.7.3 10.2-2.2 2.4-7.5 2.3-9.8-.2-5.9-6.5 3.3-16.2 9.5-10zm101.6 34.7c2 4.6 4.1 15 4.6 22.4l.4 5.7-12 .4c-18.3.7-17.1-.2-56.3 41-11.4 12-17.2 16.8-20.4 16.8-1 0-4.7-1.9-8.3-4.2l-6.6-4.2v-11.5c0-18.8 1.5-21.6 12.6-23.2 11.4-1.6 14.2-3.5 35.9-25 11-10.9 21.1-20.2 22.5-20.8 1.4-.5 7.8-1 14.3-1l11.8-.1 1.5 3.7zm-169.3 31c2.8 3.1 3 6.6.7 9.6-4.2 5.3-12.3 2.5-12.3-4.3 0-1.6.8-3.9 1.8-5 2.3-2.5 7.6-2.6 9.8-.3zm65.1 65.4c5.2 4.1 2.5 12.9-3.9 12.9-9.9 0-9.8-14.4.1-14.9.6-.1 2.3.8 3.8 2zM387 491.5V562h24v-48.5c0-26.7.3-48.5.8-48.5.6 0 21 37.1 33.4 60.7l4.3 8.3h13.3l18.7-33.8c10.3-18.5 19.1-34.1 19.6-34.6.5-.6.9 19.3.9 47.7V562h25V421h-26.8l-18.8 33.7c-10.4 18.6-20 35.9-21.4 38.5-1.4 2.6-2.7 4.8-3 4.8-.3 0-9.8-17.3-21.1-38.3l-20.7-38.2-14.1-.3-14.1-.3v70.6zm199-33.4c-4.4.6-9.1 2.1-14.5 4.8-17.5 8.7-28 24.6-29.2 44.7-1.8 27.2 15.4 50.5 41.2 55.9 8.8 1.8 12.2 1.8 21 0 18.2-3.9 32-15.9 38.1-33.3 5-14.5 4.1-30.2-2.7-44-10.1-20.7-29.9-31-53.9-28.1zm18.5 24.3c12.3 5.7 19.4 21 16.5 35.3-3.2 15.2-13.7 24.6-27.5 24.6-10.5 0-18.9-5.4-24.3-15.8-2.4-4.5-2.7-6.1-2.7-15 0-8.6.4-10.7 2.5-15 7-14.2 22.3-20.3 35.5-14.1zM794.4 458c-21.1 3.2-37.5 18-42.9 38.5-1.9 7.5-1.9 22.3 0 29.5 2.4 9.2 7.3 17.5 14.1 24 28.4 27.3 74.9 14.7 85.9-23.2 2.1-7.4 2.1-23.2 0-31.2-6.5-24.7-32-41.5-57.1-37.6zm18.4 24.6c10.3 5.1 16.2 15.6 16.2 28.7 0 9.5-2.3 15.8-8.3 22.3-10.7 11.8-27.4 11.9-38.6.4-6.1-6.3-8.4-13.4-7.9-24.5.6-12.2 3.8-18.4 13-25.4 6.2-4.7 17.9-5.4 25.6-1.5zM909 458c-27.4 4.2-45.7 28-43.6 56.6 1.5 21.1 11.5 36.5 29.2 45 28.9 13.9 63.8-2.2 71.9-33.1 2-7.7 1.9-23.4-.1-31-3-11.9-12.3-24.2-23.1-30.9-9.1-5.6-23.1-8.3-34.3-6.6zm19.6 24.8c5.6 2.9 11.9 10.3 14.1 16.5 2.7 7.8 2.3 18.8-.9 25.8-5 10.9-14.3 17.3-25.3 17.2-7.4 0-12-1.9-17.8-7.2-16.4-15.2-10.8-46.3 9.8-53.9 4.5-1.7 15.3-.9 20.1 1.6zm-280.1-17.6c1.3 3.5 9.9 26.6 19.2 51.5l16.8 45.2 13.6.1h13.7l18.7-50.3c10.3-27.6 19-50.8 19.3-51.5.3-.9-2.5-1.2-12.2-1.2h-12.7l-1.8 4.2c-.9 2.4-6.9 18.6-13.2 36-10.1 28.1-12.9 34.8-12.9 30.6 0-1.2-23.6-66.1-25.2-69.1-.8-1.5-2.5-1.7-13.3-1.7h-12.4l2.4 6.2z"/></svg>