<svg xmlns="http://www.w3.org/2000/svg" xmlns:xlink="http://www.w3.org/1999/xlink" width="500px" height="500px" viewBox="0 0 500 500" version="1.1" >
<g id="surface1">
<path style=" stroke:none;fill-rule:nonzero;fill:#0A7EA4;fill-opacity:1;" d="M 89.113281 178.757812 C 70.3125 181.347656 53.808594 191.40625 43.457031 206.589844 C 38.867188 213.28125 34.914062 223.09375 33.351562 231.640625 C 32.082031 238.425781 32.226562 250.78125 33.59375 257.175781 C 35.695312 266.796875 39.84375 276.414062 45.019531 283.445312 C 48.683594 288.425781 56.300781 295.800781 61.035156 298.925781 C 72.511719 306.492188 84.179688 310.058594 97.65625 310.058594 C 113.867188 310.058594 128.125 304.636719 140.917969 293.601562 C 149.414062 286.277344 157.082031 274.070312 160.207031 262.9375 C 162.597656 254.492188 163.28125 242.480469 161.867188 233.398438 C 157.765625 206.152344 137.648438 185.253906 110.109375 179.441406 C 105.46875 178.464844 93.898438 178.074219 89.113281 178.757812 Z M 104.25 189.011719 C 115.625 190.429688 126.417969 195.457031 135.351562 203.613281 C 138.332031 206.347656 144.53125 213.867188 144.53125 214.792969 C 144.53125 215.039062 142.285156 215.28125 139.503906 215.429688 C 131.496094 215.769531 130.566406 216.355469 119.140625 228.027344 C 109.71875 237.644531 109.621094 237.742188 107.179688 238.035156 C 100.148438 238.914062 96.144531 241.40625 93.652344 246.433594 C 92.089844 249.707031 92.042969 249.851562 91.847656 257.371094 L 91.699219 265.039062 L 89.601562 266.40625 C 82.863281 270.652344 82.082031 279.832031 87.941406 285.742188 C 94.53125 292.285156 104.6875 290.039062 108.59375 281.101562 C 109.667969 278.710938 110.011719 278.320312 111.183594 278.320312 C 111.964844 278.320312 113.722656 277.78125 115.1875 277.097656 C 117.285156 276.121094 119.679688 273.925781 126.90625 266.453125 C 131.933594 261.328125 137.109375 255.90625 138.476562 254.441406 C 141.503906 251.121094 143.019531 250.488281 147.949219 250.488281 L 151.855469 250.488281 L 151.855469 252.148438 C 151.855469 254.929688 149.5625 262.9375 147.558594 267.285156 C 142.042969 279.050781 132.472656 288.867188 121.386719 294.1875 C 113.867188 297.753906 105.324219 299.804688 97.902344 299.804688 C 90.382812 299.804688 80.128906 297.410156 73.632812 294.140625 C 66.066406 290.332031 57.910156 283.398438 53.125 276.609375 C 50.878906 273.4375 47.363281 267.089844 47.363281 266.257812 C 47.363281 266.015625 48.390625 265.429688 49.660156 264.941406 C 51.074219 264.355469 53.515625 262.5 55.910156 260.203125 L 59.816406 256.492188 L 62.84375 256.980469 C 70.949219 258.347656 77.296875 252.585938 77.199219 243.847656 L 77.148438 240.332031 L 84.863281 232.324219 L 92.53125 224.316406 L 96.242188 224.511719 C 100.441406 224.753906 102.539062 224.21875 105.421875 222.167969 C 109.667969 219.089844 111.28125 212.15625 108.886719 207.273438 C 105.859375 201.074219 98.4375 198.4375 92.382812 201.464844 C 87.597656 203.855469 85.011719 208.789062 85.695312 214.160156 L 86.035156 216.84375 L 78.273438 225 C 72.609375 231.003906 70.3125 233.105469 69.582031 233.007812 C 65.285156 232.371094 61.574219 232.371094 59.914062 233.054688 C 57.03125 234.277344 54.933594 236.132812 53.417969 238.867188 C 52.148438 241.210938 52.003906 241.894531 52.101562 245.652344 L 52.148438 249.851562 L 49.121094 253.074219 C 43.75 258.886719 43.214844 257.910156 43.261719 243.40625 C 43.261719 233.300781 43.652344 231.054688 46.828125 222.851562 C 52.003906 209.472656 63.28125 198.144531 76.808594 192.675781 C 85.890625 189.011719 94.726562 187.839844 104.25 189.011719 Z M 100.097656 209.960938 C 101.269531 211.132812 101.367188 213.71875 100.246094 214.941406 C 99.171875 216.113281 96.582031 216.0625 95.460938 214.84375 C 92.578125 211.667969 97.070312 206.933594 100.097656 209.960938 Z M 149.707031 226.902344 C 150.683594 229.148438 151.710938 234.226562 151.953125 237.839844 L 152.148438 240.625 L 146.289062 240.820312 C 137.355469 241.160156 137.941406 240.722656 118.800781 260.839844 C 113.234375 266.699219 110.402344 269.042969 108.839844 269.042969 C 108.351562 269.042969 106.542969 268.113281 104.785156 266.992188 L 101.5625 264.941406 L 101.5625 259.324219 C 101.5625 250.144531 102.296875 248.777344 107.714844 247.996094 C 113.28125 247.214844 114.648438 246.289062 125.246094 235.789062 C 130.617188 230.46875 135.546875 225.925781 136.230469 225.632812 C 136.914062 225.390625 140.039062 225.144531 143.214844 225.144531 L 148.976562 225.097656 Z M 67.042969 242.039062 C 68.410156 243.554688 68.507812 245.261719 67.382812 246.726562 C 65.332031 249.316406 61.378906 247.949219 61.378906 244.628906 C 61.378906 243.847656 61.769531 242.722656 62.257812 242.1875 C 63.378906 240.964844 65.96875 240.917969 67.042969 242.039062 Z M 98.828125 273.972656 C 101.367188 275.976562 100.050781 280.273438 96.925781 280.273438 C 92.089844 280.273438 92.140625 273.242188 96.972656 272.996094 C 97.265625 272.949219 98.097656 273.386719 98.828125 273.972656 Z M 98.828125 273.972656 "/>
<path style=" stroke:none;fill-rule:nonzero;fill:#0A7EA4;fill-opacity:1;" d="M 188.964844 239.988281 L 188.964844 274.414062 L 200.683594 274.414062 L 200.683594 250.730469 C 200.683594 237.695312 200.832031 227.050781 201.074219 227.050781 C 201.367188 227.050781 211.328125 245.164062 217.382812 256.6875 L 219.484375 260.742188 L 225.976562 260.742188 L 235.109375 244.238281 C 240.136719 235.203125 244.433594 227.585938 244.679688 227.34375 C 244.921875 227.050781 245.117188 236.765625 245.117188 250.632812 L 245.117188 274.414062 L 257.324219 274.414062 L 257.324219 205.566406 L 244.238281 205.566406 L 235.058594 222.019531 C 229.980469 231.101562 225.292969 239.550781 224.609375 240.820312 C 223.925781 242.089844 223.292969 243.164062 223.144531 243.164062 C 223 243.164062 218.359375 234.714844 212.84375 224.460938 L 202.734375 205.808594 L 195.851562 205.664062 L 188.964844 205.515625 Z M 188.964844 239.988281 "/>
<path style=" stroke:none;fill-rule:nonzero;fill:#0A7EA4;fill-opacity:1;" d="M 286.132812 223.679688 C 283.984375 223.972656 281.691406 224.707031 279.054688 226.023438 C 270.507812 230.273438 265.382812 238.035156 264.796875 247.851562 C 263.917969 261.132812 272.316406 272.507812 284.914062 275.144531 C 289.210938 276.023438 290.871094 276.023438 295.167969 275.144531 C 304.054688 273.242188 310.792969 267.382812 313.769531 258.886719 C 316.210938 251.804688 315.773438 244.140625 312.453125 237.402344 C 307.519531 227.292969 297.851562 222.265625 286.132812 223.679688 Z M 295.167969 235.546875 C 301.171875 238.328125 304.640625 245.800781 303.222656 252.78125 C 301.660156 260.203125 296.535156 264.792969 289.796875 264.792969 C 284.667969 264.792969 280.566406 262.15625 277.929688 257.078125 C 276.757812 254.882812 276.613281 254.101562 276.613281 249.753906 C 276.613281 245.554688 276.808594 244.53125 277.832031 242.429688 C 281.25 235.496094 288.722656 232.519531 295.167969 235.546875 Z M 295.167969 235.546875 "/>
<path style=" stroke:none;fill-rule:nonzero;fill:#0A7EA4;fill-opacity:1;" d="M 387.890625 223.632812 C 377.589844 225.195312 369.582031 232.421875 366.945312 242.429688 C 366.015625 246.09375 366.015625 253.320312 366.945312 256.835938 C 368.117188 261.328125 370.507812 265.378906 373.828125 268.554688 C 387.695312 281.882812 410.402344 275.730469 415.773438 257.226562 C 416.796875 253.613281 416.796875 245.898438 415.773438 241.992188 C 412.597656 229.929688 400.148438 221.726562 387.890625 223.632812 Z M 396.875 235.644531 C 401.90625 238.132812 404.785156 243.261719 404.785156 249.65625 C 404.785156 254.296875 403.664062 257.371094 400.734375 260.546875 C 395.507812 266.308594 387.355469 266.355469 381.886719 260.742188 C 378.90625 257.664062 377.785156 254.199219 378.027344 248.777344 C 378.320312 242.820312 379.882812 239.792969 384.375 236.375 C 387.402344 234.082031 393.117188 233.738281 396.875 235.644531 Z M 396.875 235.644531 "/>
<path style=" stroke:none;fill-rule:nonzero;fill:#0A7EA4;fill-opacity:1;" d="M 443.847656 223.632812 C 430.46875 225.683594 421.535156 237.304688 422.558594 251.269531 C 423.292969 261.570312 428.175781 269.089844 436.816406 273.242188 C 450.929688 280.027344 467.96875 272.167969 471.925781 257.078125 C 472.902344 253.320312 472.851562 245.652344 471.875 241.941406 C 470.410156 236.132812 465.871094 230.125 460.597656 226.855469 C 456.152344 224.121094 449.316406 222.800781 443.847656 223.632812 Z M 453.417969 235.742188 C 456.152344 237.15625 459.230469 240.769531 460.304688 243.796875 C 461.621094 247.605469 461.425781 252.976562 459.863281 256.394531 C 457.421875 261.71875 452.882812 264.84375 447.511719 264.792969 C 443.898438 264.792969 441.652344 263.867188 438.820312 261.277344 C 430.8125 253.855469 433.546875 238.671875 443.605469 234.960938 C 445.800781 234.128906 451.074219 234.519531 453.417969 235.742188 Z M 453.417969 235.742188 "/>
<path style=" stroke:none;fill-rule:nonzero;fill:#0A7EA4;fill-opacity:1;" d="M 316.652344 227.148438 C 317.285156 228.855469 321.484375 240.136719 326.027344 252.292969 L 334.230469 274.363281 L 340.871094 274.414062 L 347.558594 274.414062 L 356.691406 249.851562 C 361.71875 236.375 365.96875 225.046875 366.113281 224.707031 C 366.261719 224.265625 364.894531 224.121094 360.15625 224.121094 L 353.957031 224.121094 L 353.078125 226.171875 C 352.636719 227.34375 349.707031 235.253906 346.632812 243.75 C 341.699219 257.46875 340.332031 260.742188 340.332031 258.691406 C 340.332031 258.105469 328.808594 226.414062 328.027344 224.949219 C 327.636719 224.21875 326.808594 224.121094 321.535156 224.121094 L 315.480469 224.121094 Z M 316.652344 227.148438 "/>
</g>
</svg>
