<svg width="1063" height="360" viewBox="0 0 1063 360" fill="none" xmlns="http://www.w3.org/2000/svg">
<path d="M160.4 0.41156C132.267 4.41156 116.4 9.07822 95.7337 19.7449C54.4003 40.8116 24.1337 76.1449 9.33367 120.412C-13.0663 187.478 5.73367 263.878 56.267 311.212C82.5337 335.745 114.667 351.745 149.6 357.745C167.2 360.678 200.4 359.745 217.467 355.745C276.534 342.012 328.667 294.678 346.8 238.278C353.867 216.145 355.067 207.612 355.067 180.278C355.067 152.812 353.334 140.812 346.934 121.345C327.067 61.6116 275.334 16.0115 212.4 2.94489C202.267 0.811554 169.067 -0.788452 160.4 0.41156ZM210.534 31.4782C238.8 37.8782 268.267 54.4116 287.867 75.2115C293.734 81.3449 306.4 98.0116 306.4 99.4782C306.4 100.145 300.134 100.812 292.534 101.212C270.667 102.145 267.334 104.278 236.667 136.145L211.6 162.012L204.667 162.945C182.667 165.745 169.067 176.145 164.4 193.745C163.067 198.812 162.4 207.612 162.4 219.078V236.545L157.2 240.012C145.2 248.012 140.134 258.012 141.467 271.612C142.134 279.745 145.734 288.145 147.734 286.945C148.534 286.545 148.667 286.945 148.267 288.012C147.2 290.945 158 299.345 165.6 301.612C174.534 304.278 179.6 304.145 188.134 300.945C198.4 297.078 206.934 287.345 209.6 276.545C210.267 273.612 211.2 272.945 214.4 272.945C216.534 272.945 221.6 271.478 225.6 269.745C232.8 266.545 244.267 255.478 287.734 210.012C298.8 198.278 301.734 196.945 316.934 196.945H326.8L325.867 205.078C324.4 217.878 318.8 234.945 311.734 248.812C296.534 278.145 273.2 301.345 244.4 315.612C220.667 327.345 195.067 332.678 170 331.078C131.734 328.678 99.467 314.012 72.4003 286.945C65.867 280.278 60.0003 275.078 59.3337 275.345C58.667 275.478 58.667 275.078 59.067 274.278C59.6003 273.345 58.8003 271.478 57.467 269.878C51.7337 263.345 39.467 240.145 41.2003 239.212C41.467 239.078 45.067 237.212 49.3337 235.212C53.867 232.812 60.1337 227.878 65.6003 222.278L74.267 213.212L82.9337 214.678C90.267 215.878 92.8003 215.745 98.667 213.878C106.934 211.345 118.134 202.278 116.4 199.612C115.734 198.545 115.867 198.145 116.667 198.678C119.2 200.278 122.4 189.345 122.4 179.078C122.4 170.278 122.8 168.945 126.134 165.345C128.134 163.212 137.467 153.345 146.8 143.478L163.867 125.345L174.267 126.012C180.4 126.412 186.667 126.012 189.467 125.078C208.534 118.678 217.334 96.8116 208.134 78.5449C199.6 61.7449 180.934 55.2115 164.4 63.0782C151.067 69.3449 144 82.6782 145.6 98.1449L146.267 105.612L125.334 127.612C107.734 146.145 103.867 149.478 101.067 149.212C99.2003 148.945 92.9337 148.678 86.9337 148.545C76.667 148.278 75.867 148.545 68.9337 153.078C63.867 156.545 60.5337 160.012 57.7337 165.078C54.1337 171.612 53.7337 173.345 54.0003 183.878L54.1337 195.478L45.867 204.145C31.2003 219.745 29.7337 217.212 29.7337 178.278C29.7337 157.478 30.267 151.878 32.667 142.145C36.1337 128.278 44.0003 109.745 51.867 96.5449C58.667 85.2116 81.867 61.3449 93.7337 53.3449C110.534 42.0115 132.934 33.2115 151.734 30.4116C157.2 29.6115 163.2 28.6782 165.067 28.4116C172 27.2115 199.467 29.0782 210.534 31.4782ZM185.067 86.2782C188.267 89.4782 188.534 96.5449 185.467 99.8782C182.667 102.945 175.467 103.078 172.667 99.8782C168.667 95.4782 168.534 90.6782 172.267 87.0782C176.267 82.9449 181.467 82.6782 185.067 86.2782ZM322.134 137.212C323.734 142.145 325.6 151.612 326.134 158.145L327.2 170.012L311.734 170.545C287.334 171.212 287.734 170.945 235.867 225.612C214.667 248.012 209.734 250.678 201.2 244.412C198.8 242.678 195.067 240.412 192.934 239.612L189.067 238.012V221.745C189.067 195.878 190.934 192.412 205.867 190.012C221.467 187.612 225.867 184.545 255.067 155.612C269.734 141.078 282.934 128.812 284.4 128.545C285.867 128.145 294.267 128.012 303.067 128.145L319.067 128.278L322.134 137.212ZM95.067 174.278C98.4003 178.012 98.4003 186.012 95.067 188.412C92.4003 190.412 85.3337 190.812 82.8003 189.212C82.0003 188.678 80.667 186.545 79.867 184.545C78.4003 180.678 79.867 174.545 82.8003 172.678C86.0003 170.678 92.667 171.612 95.067 174.278ZM241.734 226.278C242.134 227.078 241.6 227.212 240.534 226.812C238.134 225.878 237.734 224.945 239.6 224.945C240.4 224.945 241.334 225.478 241.734 226.278ZM182.8 261.878C185.734 264.545 185.734 272.545 182.8 275.878C179.867 279.078 172.534 279.078 169.067 275.612C165.067 271.612 165.467 264.545 170 260.945C174 257.878 178.667 258.145 182.8 261.878Z" fill="#0A7EA4"/>
<path d="M418.933 89.1818H459.239L513.216 220.929H515.347L569.324 89.1818H609.629V271H578.024V146.089H576.337L526.089 270.467H502.474L452.225 145.822H450.538V271H418.933V89.1818ZM730.489 213.649V134.636H762.627V271H731.466V246.763H730.045C726.968 254.398 721.907 260.643 714.864 265.496C707.88 270.349 699.269 272.776 689.03 272.776C680.093 272.776 672.192 270.793 665.326 266.827C658.52 262.803 653.193 256.973 649.346 249.338C645.499 241.644 643.575 232.352 643.575 221.462V134.636H675.713V216.49C675.713 225.131 678.08 231.997 682.815 237.087C687.55 242.177 693.765 244.722 701.459 244.722C706.194 244.722 710.781 243.567 715.219 241.259C719.658 238.951 723.298 235.518 726.139 230.961C729.039 226.344 730.489 220.574 730.489 213.649ZM916.979 134.636L868.417 271H832.906L784.344 134.636H818.612L849.951 235.933H851.372L882.799 134.636H916.979ZM964.996 134.636L992.518 184.974L1020.48 134.636H1054.48L1013.38 202.818L1055.2 271H1021.37L992.518 221.906L963.931 271H929.84L971.388 202.818L930.905 134.636H964.996Z" fill="#0A7EA4"/>
</svg>
